<?xml version="1.0" encoding="UTF-8" standalone="no" ?>
<!DOCTYPE svg PUBLIC "-//W3C//DTD SVG 1.1//EN" "http://www.w3.org/Graphics/SVG/1.1/DTD/svg11.dtd">
<svg xmlns="http://www.w3.org/2000/svg" xmlns:xlink="http://www.w3.org/1999/xlink" version="1.1" width="84" height="61" viewBox="0 0 84 61" xml:space="preserve">
<desc>Created with Fabric.js 3.6.6</desc>
<defs>
</defs>
<g transform="matrix(0.85 0 0 0.85 42.37 30.99)"  >
<path style="stroke: none; stroke-width: 1; stroke-dasharray: none; stroke-linecap: butt; stroke-dashoffset: 0; stroke-linejoin: miter; stroke-miterlimit: 4; fill: rgb(0,0,0); fill-rule: nonzero; opacity: 1;"  transform=" translate(-50, -50)" d="M 48.79 60.53 h -6.09 c -7.04 0 -12.77 5.73 -12.77 12.77 v 8.31 c 0 2.46 2 4.46 4.46 4.46 h 22.72 c 2.46 0 4.46 -2 4.46 -4.46 V 73.3 C 61.57 66.26 55.84 60.53 48.79 60.53 z M 58.47 81.61 c 0 0.75 -0.61 1.36 -1.36 1.36 h -4.32 v -7.35 c 0 -0.86 -0.69 -1.55 -1.55 -1.55 s -1.55 0.69 -1.55 1.55 v 7.35 H 41.8 v -7.35 c 0 -0.86 -0.69 -1.55 -1.55 -1.55 c -0.86 0 -1.55 0.69 -1.55 1.55 v 7.35 h -4.32 c -0.75 0 -1.36 -0.61 -1.36 -1.36 V 73.3 c 0 -5.34 4.34 -9.68 9.68 -9.68 h 6.09 c 5.34 0 9.68 4.34 9.68 9.68 V 81.61 z M 36.06 49.86 c 0 5.34 4.35 9.69 9.69 9.69 c 5.34 0 9.69 -4.35 9.69 -9.69 c 0 -5.34 -4.35 -9.69 -9.69 -9.69 C 40.41 40.17 36.06 44.52 36.06 49.86 z M 52.34 49.86 c 0 3.64 -2.96 6.6 -6.6 6.6 c -3.63 0 -6.59 -2.96 -6.59 -6.6 c 0 -3.63 2.96 -6.59 6.59 -6.59 C 49.38 43.27 52.34 46.23 52.34 49.86 z M 16.78 63.87 H 11.6 c -6.12 0 -11.1 4.98 -11.1 11.1 v 7.07 c 0 2.22 1.81 4.03 4.03 4.03 h 19.33 c 2.22 0 4.03 -1.81 4.03 -4.03 v -7.07 C 27.88 68.85 22.9 63.87 16.78 63.87 z M 24.79 82.04 c 0 0.51 -0.42 0.93 -0.93 0.93 h -3.44 v -6.03 c 0 -0.86 -0.69 -1.55 -1.55 -1.55 c -0.86 0 -1.55 0.69 -1.55 1.55 v 6.03 h -6.25 v -6.03 c 0 -0.86 -0.69 -1.55 -1.55 -1.55 c -0.86 0 -1.55 0.69 -1.55 1.55 v 6.03 H 4.53 c -0.51 0 -0.93 -0.42 -0.93 -0.93 v -7.07 c 0 -4.41 3.59 -8 8 -8 h 5.18 c 4.41 0 8 3.59 8 8 V 82.04 z M 14.19 63.5 c 4.67 0 8.48 -3.8 8.48 -8.48 c 0 -4.67 -3.8 -8.48 -8.48 -8.48 c -4.68 0 -8.48 3.8 -8.48 8.48 C 5.71 59.7 9.52 63.5 14.19 63.5 z M 14.19 49.64 c 2.97 0 5.38 2.41 5.38 5.38 c 0 2.97 -2.41 5.38 -5.38 5.38 c -2.97 0 -5.38 -2.42 -5.38 -5.38 C 8.81 52.06 11.23 49.64 14.19 49.64 z M 85.05 57.19 h -7 c -7.96 0 -14.44 6.48 -14.44 14.44 v 9.55 c 0 2.7 2.19 4.89 4.89 4.89 h 26.1 c 2.7 0 4.89 -2.19 4.89 -4.89 v -9.55 C 99.5 63.67 93.02 57.19 85.05 57.19 z M 96.4 81.18 c 0 0.99 -0.81 1.79 -1.79 1.79 h -5.19 v -8.68 c 0 -0.86 -0.69 -1.55 -1.55 -1.55 c -0.86 0 -1.55 0.69 -1.55 1.55 v 8.68 h -9.53 v -8.68 c 0 -0.86 -0.69 -1.55 -1.55 -1.55 c -0.86 0 -1.55 0.69 -1.55 1.55 v 8.68 h -5.19 c -0.99 0 -1.79 -0.81 -1.79 -1.79 v -9.55 c 0 -6.26 5.09 -11.35 11.34 -11.35 h 7 c 6.26 0 11.35 5.09 11.35 11.35 V 81.18 z M 70.65 44.7 c 0 6.01 4.89 10.9 10.9 10.9 s 10.9 -4.89 10.9 -10.9 c 0 -6.01 -4.89 -10.9 -10.9 -10.9 S 70.65 38.69 70.65 44.7 z M 81.56 36.89 c 4.31 0 7.81 3.5 7.81 7.81 c 0 4.31 -3.5 7.81 -7.81 7.81 s -7.81 -3.5 -7.81 -7.81 C 73.75 40.39 77.25 36.89 81.56 36.89 z M 5.76 37.29 c -0.2 -0.83 0.31 -1.67 1.14 -1.87 l 62.51 -15.01 l -6.18 -3.59 c -0.74 -0.43 -0.99 -1.38 -0.56 -2.12 c 0.43 -0.74 1.38 -0.99 2.12 -0.56 l 9.53 5.54 c 0.74 0.43 0.99 1.38 0.56 2.12 l -5.54 9.53 c -0.29 0.49 -0.81 0.77 -1.34 0.77 c -0.26 0 -0.53 -0.07 -0.78 -0.21 c -0.74 -0.43 -0.99 -1.38 -0.56 -2.12 l 3.72 -6.4 L 7.62 38.43 c -0.12 0.03 -0.24 0.04 -0.36 0.04 C 6.56 38.47 5.93 38 5.76 37.29 z" stroke-linecap="round" />
</g>
</svg>