<?xml version="1.0" encoding="UTF-8" standalone="no" ?>
<!DOCTYPE svg PUBLIC "-//W3C//DTD SVG 1.1//EN" "http://www.w3.org/Graphics/SVG/1.1/DTD/svg11.dtd">
<svg xmlns="http://www.w3.org/2000/svg" xmlns:xlink="http://www.w3.org/1999/xlink" version="1.1" width="82" height="60" viewBox="0 0 82 60" xml:space="preserve">
<desc>Created with Fabric.js 3.6.6</desc>
<defs>
</defs>
<g transform="matrix(1 0 0 1 41.02 30.25)"  >
<g style=""   >
		<g transform="matrix(1 0 0 1 -29.75 15.62)"  >
<path style="stroke: none; stroke-width: 1; stroke-dasharray: none; stroke-linecap: butt; stroke-dashoffset: 0; stroke-linejoin: miter; stroke-miterlimit: 4; fill: rgb(0,0,0); fill-rule: nonzero; opacity: 1;"  transform=" translate(-20.84, -66.68)" d="m 22.777 65.527 h -3.8672 c -0.63672 0 -1.1523 0.51562 -1.1523 1.1523 c 0 0.63672 0.51563 1.1523 1.1523 1.1523 h 3.8672 c 0.63672 0 1.1523 -0.51562 1.1523 -1.1523 c 0 -0.63672 -0.51563 -1.1523 -1.1523 -1.1523 z" stroke-linecap="round" />
</g>
		<g transform="matrix(1 0 0 1 0 0)"  >
<path style="stroke: none; stroke-width: 1; stroke-dasharray: none; stroke-linecap: butt; stroke-dashoffset: 0; stroke-linejoin: miter; stroke-miterlimit: 4; fill: rgb(0,0,0); fill-rule: nonzero; opacity: 1;"  transform=" translate(-50.59, -51.06)" d="m 82.914 62.992 c -1.0742 -2.1641 -2.8438 -5.7383 -4.2695 -8.6445 c 0.32812 0.0625 0.66797 0.097656 1.0156 0.097656 c 0.63672 0 1.1523 -0.51562 1.1523 -1.1523 v -8.9375 c 0 -0.63672 -0.51562 -1.1523 -1.1523 -1.1523 c -2.3047 0 -4.2852 1.3945 -5.1523 3.3789 c -1.0547 -1.0938 -2.125 -1.3906 -2.9766 -1.3906 c -0.37891 0 -0.74219 0.050782 -1.0938 0.12891 c -0.011719 0.003907 -0.023438 0 -0.03125 0.003907 c -0.10547 0.03125 -2.6094 0.77344 -4.8242 -1.7188 c -0.58203 -0.65234 -1.0703 -1.2773 -1.5 -1.8281 c -0.41797 -0.53125 -0.8125 -1.0352 -1.2305 -1.4922 c 4.1719 -1.0586 7.2734 -4.8359 7.2734 -9.3359 c 0 -5.3164 -4.3242 -9.6406 -9.6406 -9.6406 s -9.6406 4.3242 -9.6406 9.6406 c 0 2.9766 1.3555 5.6406 3.4805 7.4102 c -3.1211 0.84766 -5.4297 3.1641 -6.7617 6.832 h -16.195 c -0.63672 0 -1.1523 0.51562 -1.1523 1.1523 v 5.1016 l -10.281 -0.003906 c -0.63672 0 -1.1523 0.51562 -1.1523 1.1523 s 0.51562 1.1523 1.1523 1.1523 h 10.285 v 4.7383 h -18.996 c -0.63672 0 -1.1523 0.51562 -1.1523 1.1523 s 0.51563 1.1523 1.1523 1.1523 h 27.543 c -0.96875 1.1719 -1.793 2.7656 -2.3633 4.7383 h -8.1289 c -0.63672 0 -1.1523 0.51562 -1.1523 1.1523 c 0 0.63672 0.51562 1.1523 1.1523 1.1523 h 7.6094 c -0.20312 1.2461 -0.32422 2.5977 -0.32422 4.0547 c 0 0.63672 0.51562 1.1523 1.1523 1.1523 h 2.8945 c 0.56641 4.3828 4.3125 7.7773 8.8477 7.7773 c 4.5312 0 8.2773 -3.3984 8.8477 -7.7773 h 16.035 c 0.56641 4.3828 4.3125 7.7773 8.8477 7.7773 c 4.9258 0 8.9297 -4.0078 8.9297 -8.9297 c 0 -4.6797 -3.6172 -8.5195 -8.1992 -8.8945 z m -4.4062 -17.281 v 6.2227 c -1.2656 -0.46875 -2.1641 -1.6875 -2.1641 -3.1094 c 0 -1.4258 0.90234 -2.6445 2.1641 -3.1133 z m -4.5312 4.1758 c -1.8008 0.78906 -3.4453 1.0742 -4.9258 1.0312 c -0.085937 -0.37109 -0.15234 -0.66406 -0.19531 -0.85938 c 0.054687 -1.2305 0.94141 -2.2422 2.1094 -2.4961 c 0.019531 -0.003906 0.035156 -0.007812 0.050781 -0.011719 c 0.16797 -0.03125 0.33984 -0.050781 0.51562 -0.050781 c 0.82812 -0.007812 1.6992 0.85547 2.4453 2.3867 z m -20.836 -18.938 c 0 -4.0469 3.293 -7.3398 7.3398 -7.3398 s 7.3398 3.293 7.3398 7.3398 s -3.293 7.3398 -7.3398 7.3398 c -0.44141 0 -0.87109 -0.046874 -1.2891 -0.12109 c -0.074218 -0.015625 -0.15234 -0.027344 -0.22656 -0.039063 c -3.3242 -0.69922 -5.8242 -3.6523 -5.8242 -7.1797 z m 4.043 9.3438 c 2.8047 0 3.5156 0.91016 5.0781 2.9062 c 0.44922 0.57812 0.96484 1.2305 1.5938 1.9375 c 1.1602 1.3047 2.3945 1.9805 3.5117 2.3203 c -0.51172 0.78516 -0.81641 1.7148 -0.81641 2.7227 c 0 0.085937 0.011719 0.17578 0.027344 0.25781 c 0.007813 0.03125 0.015625 0.066406 0.023437 0.10156 c -3.9492 -1.1367 -6.1914 -4.3906 -6.2227 -4.4414 c -0.34766 -0.53516 -1.0586 -0.6875 -1.5938 -0.34375 s -0.6875 1.0586 -0.34375 1.5938 c 0.28906 0.44922 0.71484 0.98828 1.25 1.5586 c -0.72266 0.91406 -1.7383 2.457 -2.1602 4.293 h -8.8164 v -4.0547 l 0.73047 -2.3398 c 1.3281 -4.3867 3.8594 -6.5117 7.7383 -6.5117 z m -24.664 7.1992 h 13.895 v 10.992 h -13.895 z m 15.934 31.02 c -3.2617 0 -5.9727 -2.3672 -6.5195 -5.4766 h 13.039 c -0.54688 3.1094 -3.2578 5.4766 -6.5195 5.4766 z m -10.566 -7.7773 c 0.29688 -6.418 3.0625 -9.9453 5.0039 -9.9453 h 11.32 c 2.1992 0 2.4766 2.1523 2.5078 2.5625 v 3.6562 c 0 1.6133 0.67578 2.8281 1.5586 3.7266 z m 21.133 -3.7266 v -3.6562 c 0 -0.023437 0 -0.10547 -0.003906 -0.13281 c -0.10547 -1.6367 -1.2422 -4.7344 -4.8086 -4.7344 h -5.4922 v -2.9922 h 9.7891 c 2.9844 0 5.2383 1.8398 5.2383 4.2812 v 10.961 h -0.96484 c -0.64844 -0.19141 -3.7578 -1.2266 -3.7578 -3.7266 z m 8.4844 3.7266 h -1.457 v -10.961 c 0 -3.3398 -2.5664 -5.9414 -6.1562 -6.4805 c 0.35547 -1.1719 1.0117 -2.1914 1.5195 -2.8555 c 1.5 1.1523 3.4453 2.1875 5.7578 2.6016 c 1.2344 5.5195 2.6641 12.398 2.6641 13.852 c 0.003907 3.8438 -1.5703 3.8438 -2.3281 3.8438 z m 2.0664 -17.504 c 1.6523 -0.035157 3.4492 -0.40234 5.3633 -1.25 c 1.4141 2.9531 4.6797 9.5352 5.8516 11.898 l -6.8555 6.8555 h -2.5156 c 0.44922 -0.91016 0.72656 -2.1523 0.72656 -3.8438 c 0 -1.8164 -1.582 -9.207 -2.5703 -13.66 z m 12.613 25.281 c -3.5 0 -6.3711 -2.7305 -6.6055 -6.1719 l 7.0586 -7.0586 c 3.4414 0.23438 6.1719 3.1055 6.1719 6.6055 c 0 3.6523 -2.9727 6.625 -6.625 6.625 z" stroke-linecap="round" />
</g>
</g>
</g>
</svg>