<?xml version="1.0" encoding="UTF-8" standalone="no" ?>
<!DOCTYPE svg PUBLIC "-//W3C//DTD SVG 1.1//EN" "http://www.w3.org/Graphics/SVG/1.1/DTD/svg11.dtd">
<svg xmlns="http://www.w3.org/2000/svg" xmlns:xlink="http://www.w3.org/1999/xlink" version="1.1" width="480" height="480" viewBox="0 0 480 480" xml:space="preserve">
<desc>Created with Fabric.js 3.6.6</desc>
<defs>
</defs>
<g transform="matrix(2.03 0 0 2.03 240.44 233.94)"  >
<g style=""   >
		<g transform="matrix(0.63 0 0 0.63 -32.25 -62.7)"  >
<path style="stroke: none; stroke-width: 1; stroke-dasharray: none; stroke-linecap: butt; stroke-dashoffset: 0; stroke-linejoin: miter; stroke-miterlimit: 4; fill: rgb(0,0,0); fill-rule: evenodd; opacity: 1;"  transform=" translate(-194.96, -147.17)" d="M 187.2 163.2 c -0.7 0 -1.4 -0.1 -2.1 -0.4 c -3 -1.1 -4.4 -4.5 -3.3 -7.4 c 2.2 -5.8 5.4 -11.1 9.5 -15.7 c 2.4 -2.7 5 -5.2 7.9 -7.4 c 2.5 -1.9 6.1 -1.4 8.1 1.1 s 1.4 6.1 -1.1 8.1 c -2.2 1.7 -4.3 3.7 -6.2 5.8 c -3.2 3.7 -5.7 7.8 -7.4 12.3 C 191.7 161.8 189.5 163.2 187.2 163.2 z" stroke-linecap="round" />
</g>
		<g transform="matrix(0.63 0 0 0.63 34.08 -8.41)"  >
<path style="stroke: none; stroke-width: 1; stroke-dasharray: none; stroke-linecap: butt; stroke-dashoffset: 0; stroke-linejoin: miter; stroke-miterlimit: 4; fill: rgb(0,0,0); fill-rule: evenodd; opacity: 1;"  transform=" translate(-300.25, -233.35)" d="M 305.2 311 c -1.6 0 -3.1 -0.6 -4.3 -1.9 c -2.1 -2.4 -2 -6 0.4 -8.1 c 4.6 -4.1 8.2 -9.3 10.3 -15.1 c 0.7 -1.9 2.4 -3.3 4.5 -3.6 c 2 -0.3 4.1 0.5 5.4 2 c 7.5 9.2 18.6 14.5 30.5 14.5 c 17.5 0 33 -11.7 37.8 -28.6 c 0.7 -2.5 3 -4.2 5.5 -4.2 c 13.1 0 23.7 -10.7 23.7 -23.8 c 0 -13.1 -10.7 -23.8 -23.8 -23.8 c -2.9 0 -5.8 0.5 -8.5 1.6 c -1.8 0.7 -3.9 0.4 -5.5 -0.8 c -1.5 -1.1 -2.4 -3 -2.3 -4.8 c 0 -21.6 -17.6 -39.2 -39.3 -39.2 c -10.3 0 -20 3.9 -27.3 11.1 c -1.2 1.2 -3 1.8 -4.7 1.6 c -1.7 -0.2 -3.3 -1.2 -4.2 -2.6 c -6.2 -9.6 -16.1 -16.1 -27.4 -17.7 c -1.9 -0.3 -3.8 -0.4 -5.7 -0.4 c -20.5 0 -37.7 16 -39.2 36.4 c -0.1 1.6 -0.8 3 -2 4 c -1.2 1 -2.7 1.5 -4.3 1.3 c -1.2 -0.1 -2.5 -0.2 -3.8 -0.2 c -21.7 0 -39.3 17.6 -39.3 39.3 c 0 10.1 3.8 19.7 10.7 27 c 1.5 1.5 3.1 3 4.7 4.3 c 2.5 1.9 3 5.5 1.1 8.1 c -1.9 2.5 -5.5 3 -8.1 1.1 c -2.2 -1.7 -4.2 -3.5 -6.1 -5.5 c -9 -9.5 -13.9 -21.9 -13.9 -34.9 c 0 -27.8 22.4 -50.4 50.1 -50.8 c 1.9 -10.6 7.3 -20.4 15.3 -27.9 c 9.4 -8.8 21.8 -13.7 34.7 -13.7 c 2.5 0 4.9 0.2 7.4 0.5 c 12.4 1.8 23.6 8.1 31.5 17.6 c 8.7 -6.5 19.3 -10.1 30.4 -10.1 c 13.6 0 26.3 5.3 35.9 14.9 c 7.9 7.9 12.9 17.9 14.4 28.8 c 1.7 -0.3 3.5 -0.4 5.3 -0.4 c 19.5 0 35.3 15.8 35.3 35.3 c 0 18 -13.5 32.9 -31 35 c -3.3 8.9 -9.1 16.8 -16.7 22.5 c -8.9 6.9 -19.6 10.5 -30.9 10.5 c -12.4 0 -24.2 -4.5 -33.3 -12.5 c -2.6 4.3 -5.8 8.3 -9.6 11.7 C 308 310.5 306.6 311 305.2 311 L 305.2 311 z M 379 214.2 C 379 214.2 379 214.2 379 214.2 C 379 214.2 379 214.2 379 214.2 z" stroke-linecap="round" />
</g>
		<g transform="matrix(0.63 0 0 0.63 -46.55 -27.22)"  >
<path style="stroke: none; stroke-width: 1; stroke-dasharray: none; stroke-linecap: butt; stroke-dashoffset: 0; stroke-linejoin: miter; stroke-miterlimit: 4; fill: rgb(0,0,0); fill-rule: evenodd; opacity: 1;"  transform=" translate(-172.25, -203.5)" d="M 166.6 290.3 c -9.8 0 -19.3 -2.8 -27.5 -8.1 c -6.6 -4.3 -12.2 -10 -16.2 -16.8 c -3.3 0.7 -6.8 1 -10.2 1 c -28 0 -50.8 -22.8 -50.8 -50.8 c 0 -12.3 4.4 -24.1 12.5 -33.4 c 7 -8.1 16.4 -13.7 26.7 -16.1 c 1.9 -10.1 6.7 -19.7 14.1 -27.8 c 8.5 -9.4 19.8 -16.1 32.5 -19.4 c 10.7 -2.8 21.8 -2.9 32.2 -0.4 c 8.6 2 16.5 5.8 23.1 11 c 9 -5.7 19.6 -8.5 30.2 -8.1 c 11.5 0.4 22.3 4.5 31.3 11.6 c 8.8 7 15 16.5 17.9 27.3 c 0.5 1.9 0.1 3.9 -1.2 5.3 c -1.3 1.5 -3.2 2.2 -5.1 1.9 c -1.9 -0.3 -3.8 -0.4 -5.7 -0.4 c -20.5 0 -37.7 16 -39.2 36.4 c -0.1 1.6 -0.8 3 -2 4 c -1.2 1 -2.7 1.5 -4.3 1.3 c -1.2 -0.1 -2.5 -0.2 -3.8 -0.2 c -21.7 0 -39.3 17.6 -39.3 39.3 c 0 10.1 3.8 19.7 10.7 27 c 1.2 1.3 1.8 3.1 1.5 4.8 s -1.3 3.3 -2.9 4.2 C 183.7 288.1 175.2 290.3 166.6 290.3 L 166.6 290.3 z M 125.9 253 c 2.2 0 4.2 1.2 5.2 3.3 c 6.5 13.7 20.4 22.5 35.5 22.5 c 4.3 0 8.6 -0.7 12.6 -2.1 c -5.8 -8.4 -8.9 -18.4 -8.9 -28.7 c 0 -27.8 22.4 -50.4 50.1 -50.8 c 1.9 -10.6 7.3 -20.4 15.3 -27.9 c 9 -8.4 20.5 -13.2 32.7 -13.6 c -6.7 -13.3 -20.1 -22.2 -35.5 -22.7 c -9.6 -0.4 -19.1 2.6 -26.7 8.4 c -2.2 1.7 -5.4 1.5 -7.4 -0.4 c -12.1 -11.3 -30.6 -15.4 -48.2 -10.9 c -21.2 5.5 -36.7 22.2 -38.7 41.5 c -0.3 2.6 -2.3 4.7 -4.9 5.1 c -19.2 2.8 -33.6 19.5 -33.6 38.9 c 0 21.7 17.6 39.3 39.3 39.3 c 3.9 0 7.8 -0.6 11.5 -1.7 C 124.8 253 125.3 253 125.9 253 z" stroke-linecap="round" />
</g>
		<g transform="matrix(0.63 0 0 0.63 0.09 40.88)"  >
<path style="stroke: none; stroke-width: 1; stroke-dasharray: none; stroke-linecap: butt; stroke-dashoffset: 0; stroke-linejoin: miter; stroke-miterlimit: 4; fill: rgb(0,0,0); fill-rule: evenodd; opacity: 1;"  transform=" translate(-246.3, -311.6)" d="M 246.3 376.7 c -17.4 0 -33.7 -6.8 -46 -19.1 c -12.3 -12.3 -19.1 -28.6 -19.1 -46 c 0 -17.4 6.8 -33.7 19.1 -46 c 12.3 -12.3 28.6 -19.1 46 -19.1 s 33.7 6.8 46 19.1 c 12.3 12.3 19.1 28.6 19.1 46 c 0 17.4 -6.8 33.7 -19.1 46 C 280 369.9 263.6 376.7 246.3 376.7 L 246.3 376.7 z M 246.3 258.1 c -29.5 0 -53.6 24 -53.6 53.6 s 24 53.6 53.6 53.6 s 53.6 -24 53.6 -53.6 C 299.8 282.1 275.8 258.1 246.3 258.1 z" stroke-linecap="round" />
</g>
		<g transform="matrix(0.63 0 0 0.63 0.03 35.56)"  >
<path style="stroke: none; stroke-width: 1; stroke-dasharray: none; stroke-linecap: butt; stroke-dashoffset: 0; stroke-linejoin: miter; stroke-miterlimit: 4; fill: rgb(0,0,0); fill-rule: evenodd; opacity: 1;"  transform=" translate(-246.2, -303.15)" d="M 246.3 334.5 c -3.2 0 -5.8 -2.6 -5.8 -5.8 v -16 c 0 -3.2 2.6 -5.8 5.8 -5.8 c 6.5 0 11.8 -5.3 11.8 -11.8 s -5.3 -11.8 -11.8 -11.8 s -11.8 5.3 -11.8 11.8 c 0 3.2 -2.6 5.8 -5.8 5.8 s -5.8 -2.6 -5.8 -5.8 c 0 -12.9 10.5 -23.3 23.3 -23.3 c 12.9 0 23.3 10.5 23.3 23.3 c 0 10.9 -7.5 20.1 -17.6 22.6 v 10.9 C 252 331.9 249.4 334.5 246.3 334.5 z" stroke-linecap="round" />
</g>
		<g transform="matrix(0.63 0 0 0.63 0.09 61.99)"  >
<path style="stroke: none; stroke-width: 1; stroke-dasharray: none; stroke-linecap: butt; stroke-dashoffset: 0; stroke-linejoin: miter; stroke-miterlimit: 4; fill: rgb(0,0,0); fill-rule: evenodd; opacity: 1;"  transform=" translate(-246.3, -345.1)" d="M 246.3 351.4 c -3.2 0 -5.8 -2.6 -5.8 -5.8 v -1 c 0 -3.2 2.6 -5.8 5.8 -5.8 s 5.8 2.6 5.8 5.8 v 1 C 252 348.9 249.4 351.4 246.3 351.4 z" stroke-linecap="round" />
</g>
</g>
</g>
</svg>