<?xml version="1.0" encoding="utf-8"?>
<!-- Generator: Adobe Illustrator 23.1.0, SVG Export Plug-In . SVG Version: 6.00 Build 0)  -->
<svg version="1.1" id="Capa_1" xmlns="http://www.w3.org/2000/svg" xmlns:xlink="http://www.w3.org/1999/xlink" x="0px" y="0px"
	 viewBox="0 0 247.1 247.1" enable-background="new 0 0 247.1 247.1" xml:space="preserve">
<rect x="75.4" y="175.5" width="97" height="6.5"/>
<rect x="75.4" y="194.9" width="97" height="6.5"/>
<circle fill="none" stroke="#000000" stroke-width="2" stroke-miterlimit="10" cx="178.9" cy="117.3" r="6.5"/>
<path d="M198.3,84.9h-12.9V39.6c0-7.1-5.8-12.9-12.9-12.9h-97c-7.1,0-12.9,5.8-12.9,12.9v45.3H49.5c-11,0-19.4,8.4-19.4,19.4v58.2
	c0,11,8.4,19.4,19.4,19.4h12.9v25.9c0,7.1,5.8,12.9,12.9,12.9h97c7.1,0,12.9-5.8,12.9-12.9v-25.9h12.9c11,0,19.4-8.4,19.4-19.4
	v-58.2C217.7,93.3,209.3,84.9,198.3,84.9z M68.9,39.6c0-3.2,2.6-6.5,6.5-6.5h97c3.2,0,6.5,2.6,6.5,6.5v45.3h-110V39.6z M178.9,207.8
	c0,3.2-2.6,6.5-6.5,6.5h-97c-3.2,0-6.5-2.6-6.5-6.5v-45.3h110V207.8z M211.2,162.5c0,7.1-5.8,12.9-12.9,12.9h-12.9v-19.4H62.4v19.4
	H49.5c-7.1,0-12.9-5.8-12.9-12.9v-58.2c0-7.1,5.8-12.9,12.9-12.9h148.8c7.1,0,12.9,5.8,12.9,12.9L211.2,162.5L211.2,162.5z"/>
</svg>
