<?xml version="1.0" encoding="UTF-8" standalone="no" ?>
<!DOCTYPE svg PUBLIC "-//W3C//DTD SVG 1.1//EN" "http://www.w3.org/Graphics/SVG/1.1/DTD/svg11.dtd">
<svg xmlns="http://www.w3.org/2000/svg" xmlns:xlink="http://www.w3.org/1999/xlink" version="1.1" width="20" height="19" viewBox="0 0 20 19" xml:space="preserve">
<desc>Created with Fabric.js 3.6.6</desc>
<defs>
</defs>
<g transform="matrix(-0.33 0 0 0.33 10.15 10)"  >
<g style=""   >
		<g transform="matrix(1 0 0 1 -22.9 20.9)"  >
<path style="stroke: none; stroke-width: 1; stroke-dasharray: none; stroke-linecap: butt; stroke-dashoffset: 0; stroke-linejoin: miter; stroke-miterlimit: 4; fill: rgb(0,0,0); fill-rule: nonzero; opacity: 1;"  transform=" translate(-9.1, -52.9)" d="M 3.1 52.9 c 0 3.3 2.7 6 6 6 c 3.3 0 6 -2.7 6 -6 c 0 -3.3 -2.7 -6 -6 -6 C 5.8 46.9 3.1 49.6 3.1 52.9 z M 13.1 52.9 c 0 1.1 -0.4 2.1 -1.2 2.8 c -0.7 0.7 -1.7 1.2 -2.8 1.2 c -1.1 0 -2.1 -0.4 -2.8 -1.2 C 5.6 55 5.1 54 5.1 52.9 c 0 -1.1 0.4 -2.1 1.2 -2.8 C 7 49.4 8 48.9 9.1 48.9 c 1.1 0 2.1 0.4 2.8 1.2 C 12.7 50.8 13.1 51.8 13.1 52.9 z" stroke-linecap="round" />
</g>
		<g transform="matrix(1 0 0 1 -7.6 20.9)"  >
<path style="stroke: none; stroke-width: 1; stroke-dasharray: none; stroke-linecap: butt; stroke-dashoffset: 0; stroke-linejoin: miter; stroke-miterlimit: 4; fill: rgb(0,0,0); fill-rule: nonzero; opacity: 1;"  transform=" translate(-24.4, -52.9)" d="M 18.4 52.9 c 0 3.3 2.7 6 6 6 c 3.3 0 6 -2.7 6 -6 c 0 -3.3 -2.7 -6 -6 -6 C 21.1 46.9 18.4 49.6 18.4 52.9 z M 28.4 52.9 c 0 1.1 -0.4 2.1 -1.2 2.8 c -0.7 0.7 -1.7 1.2 -2.8 1.2 c -1.1 0 -2.1 -0.4 -2.8 -1.2 c -0.7 -0.7 -1.2 -1.7 -1.2 -2.8 c 0 -1.1 0.4 -2.1 1.2 -2.8 c 0.7 -0.7 1.7 -1.2 2.8 -1.2 c 1.1 0 2.1 0.4 2.8 1.2 C 27.9 50.8 28.4 51.8 28.4 52.9 z" stroke-linecap="round" />
</g>
		<g transform="matrix(1 0 0 1 7.6 20.9)"  >
<path style="stroke: none; stroke-width: 1; stroke-dasharray: none; stroke-linecap: butt; stroke-dashoffset: 0; stroke-linejoin: miter; stroke-miterlimit: 4; fill: rgb(0,0,0); fill-rule: nonzero; opacity: 1;"  transform=" translate(-39.6, -52.9)" d="M 39.6 58.9 c 3.3 0 6 -2.7 6 -6 c 0 -3.3 -2.7 -6 -6 -6 c -3.3 0 -6 2.7 -6 6 C 33.6 56.2 36.3 58.9 39.6 58.9 z M 36.8 50.1 c 0.7 -0.7 1.7 -1.2 2.8 -1.2 c 1.1 0 2.1 0.4 2.8 1.2 c 0.7 0.7 1.2 1.7 1.2 2.8 c 0 1.1 -0.4 2.1 -1.2 2.8 c -0.7 0.7 -1.7 1.2 -2.8 1.2 c -1.1 0 -2.1 -0.4 -2.8 -1.2 c -0.7 -0.7 -1.2 -1.7 -1.2 -2.8 C 35.6 51.8 36.1 50.8 36.8 50.1 z" stroke-linecap="round" />
</g>
		<g transform="matrix(1 0 0 1 -15.1 7)"  >
<path style="stroke: none; stroke-width: 1; stroke-dasharray: none; stroke-linecap: butt; stroke-dashoffset: 0; stroke-linejoin: miter; stroke-miterlimit: 4; fill: rgb(0,0,0); fill-rule: nonzero; opacity: 1;"  transform=" translate(-16.9, -39)" d="M 10.9 39 c 0 3.3 2.7 6 6 6 c 3.3 0 6 -2.7 6 -6 c 0 -3.3 -2.7 -6 -6 -6 C 13.6 33 10.9 35.7 10.9 39 z M 20.9 39 c 0 1.1 -0.4 2.1 -1.2 2.8 C 19 42.5 18 43 16.9 43 c -1.1 0 -2.1 -0.4 -2.8 -1.2 c -0.7 -0.7 -1.2 -1.7 -1.2 -2.8 c 0 -1.1 0.4 -2.1 1.2 -2.8 c 0.7 -0.7 1.7 -1.2 2.8 -1.2 c 1.1 0 2.1 0.4 2.8 1.2 C 20.4 36.9 20.9 37.9 20.9 39 z" stroke-linecap="round" />
</g>
		<g transform="matrix(1 0 0 1 0.1 7)"  >
<path style="stroke: none; stroke-width: 1; stroke-dasharray: none; stroke-linecap: butt; stroke-dashoffset: 0; stroke-linejoin: miter; stroke-miterlimit: 4; fill: rgb(0,0,0); fill-rule: nonzero; opacity: 1;"  transform=" translate(-32.1, -39)" d="M 38.1 39 c 0 -3.3 -2.7 -6 -6 -6 c -3.3 0 -6 2.7 -6 6 c 0 3.3 2.7 6 6 6 C 35.4 45 38.1 42.3 38.1 39 z M 28.1 39 c 0 -1.1 0.4 -2.1 1.2 -2.8 C 30 35.4 31 35 32.1 35 c 1.1 0 2.1 0.4 2.8 1.2 c 0.7 0.7 1.2 1.7 1.2 2.8 c 0 1.1 -0.4 2.1 -1.2 2.8 c -0.7 0.7 -1.7 1.2 -2.8 1.2 c -1.1 0 -2.1 -0.4 -2.8 -1.2 C 28.6 41.1 28.1 40.1 28.1 39 z" stroke-linecap="round" />
</g>
		<g transform="matrix(1 0 0 1 15.4 7)"  >
<path style="stroke: none; stroke-width: 1; stroke-dasharray: none; stroke-linecap: butt; stroke-dashoffset: 0; stroke-linejoin: miter; stroke-miterlimit: 4; fill: rgb(0,0,0); fill-rule: nonzero; opacity: 1;"  transform=" translate(-47.4, -39)" d="M 47.4 33 c -3.3 0 -6 2.7 -6 6 c 0 3.3 2.7 6 6 6 c 3.3 0 6 -2.7 6 -6 C 53.4 35.7 50.7 33 47.4 33 z M 50.2 41.8 c -0.7 0.7 -1.7 1.2 -2.8 1.2 c -1.1 0 -2.1 -0.4 -2.8 -1.2 c -0.7 -0.7 -1.2 -1.7 -1.2 -2.8 c 0 -1.1 0.4 -2.1 1.2 -2.8 c 0.7 -0.7 1.7 -1.2 2.8 -1.2 c 1.1 0 2.1 0.4 2.8 1.2 c 0.7 0.7 1.2 1.7 1.2 2.8 C 51.4 40.1 50.9 41.1 50.2 41.8 z" stroke-linecap="round" />
</g>
		<g transform="matrix(1 0 0 1 -7.5 -7)"  >
<path style="stroke: none; stroke-width: 1; stroke-dasharray: none; stroke-linecap: butt; stroke-dashoffset: 0; stroke-linejoin: miter; stroke-miterlimit: 4; fill: rgb(0,0,0); fill-rule: nonzero; opacity: 1;"  transform=" translate(-24.5, -25)" d="M 18.5 25 c 0 3.3 2.7 6 6 6 c 3.3 0 6 -2.7 6 -6 c 0 -3.3 -2.7 -6 -6 -6 C 21.2 19 18.5 21.7 18.5 25 z M 28.5 25 c 0 1.1 -0.4 2.1 -1.2 2.8 c -0.7 0.7 -1.7 1.2 -2.8 1.2 c -1.1 0 -2.1 -0.4 -2.8 -1.2 c -0.7 -0.7 -1.2 -1.7 -1.2 -2.8 c 0 -1.1 0.4 -2.1 1.2 -2.8 c 0.7 -0.7 1.7 -1.2 2.8 -1.2 c 1.1 0 2.1 0.4 2.8 1.2 C 28.1 22.9 28.5 23.9 28.5 25 z" stroke-linecap="round" />
</g>
		<g transform="matrix(1 0 0 1 7.8 -7)"  >
<path style="stroke: none; stroke-width: 1; stroke-dasharray: none; stroke-linecap: butt; stroke-dashoffset: 0; stroke-linejoin: miter; stroke-miterlimit: 4; fill: rgb(0,0,0); fill-rule: nonzero; opacity: 1;"  transform=" translate(-39.8, -25)" d="M 39.8 19 c -3.3 0 -6 2.7 -6 6 c 0 3.3 2.7 6 6 6 c 3.3 0 6 -2.7 6 -6 C 45.7 21.7 43.1 19 39.8 19 z M 42.6 27.9 c -0.7 0.7 -1.7 1.2 -2.8 1.2 c -1.1 0 -2.1 -0.4 -2.8 -1.2 c -0.7 -0.7 -1.2 -1.7 -1.2 -2.8 c 0 -1.1 0.4 -2.1 1.2 -2.8 c 0.7 -0.7 1.7 -1.2 2.8 -1.2 c 1.1 0 2.1 0.4 2.8 1.2 c 0.7 0.7 1.2 1.7 1.2 2.8 C 43.7 26.1 43.3 27.1 42.6 27.9 z" stroke-linecap="round" />
</g>
		<g transform="matrix(1 0 0 1 0.1 -20.9)"  >
<path style="stroke: none; stroke-width: 1; stroke-dasharray: none; stroke-linecap: butt; stroke-dashoffset: 0; stroke-linejoin: miter; stroke-miterlimit: 4; fill: rgb(0,0,0); fill-rule: nonzero; opacity: 1;"  transform=" translate(-32.1, -11.1)" d="M 32.1 5.1 c -3.3 0 -6 2.7 -6 6 c 0 3.3 2.7 6 6 6 c 3.3 0 6 -2.7 6 -6 C 38.1 7.8 35.4 5.1 32.1 5.1 z M 35 13.9 c -0.7 0.7 -1.7 1.2 -2.8 1.2 c -1.1 0 -2.1 -0.4 -2.8 -1.2 c -0.7 -0.7 -1.2 -1.7 -1.2 -2.8 c 0 -1.1 0.4 -2.1 1.2 -2.8 C 30 7.5 31 7.1 32.1 7.1 c 1.1 0 2.1 0.4 2.8 1.2 c 0.7 0.7 1.2 1.7 1.2 2.8 C 36.1 12.2 35.7 13.2 35 13.9 z" stroke-linecap="round" />
</g>
		<g transform="matrix(1 0 0 1 22.9 20.9)"  >
<path style="stroke: none; stroke-width: 1; stroke-dasharray: none; stroke-linecap: butt; stroke-dashoffset: 0; stroke-linejoin: miter; stroke-miterlimit: 4; fill: rgb(0,0,0); fill-rule: nonzero; opacity: 1;"  transform=" translate(-54.9, -52.9)" d="M 48.9 52.9 c 0 3.3 2.7 6 6 6 c 3.3 0 6 -2.7 6 -6 c 0 -3.3 -2.7 -6 -6 -6 C 51.6 46.9 48.9 49.6 48.9 52.9 z M 52 50.1 c 0.7 -0.7 1.7 -1.2 2.8 -1.2 c 1.1 0 2.1 0.4 2.8 1.2 c 0.7 0.7 1.2 1.7 1.2 2.8 c 0 1.1 -0.4 2.1 -1.2 2.8 c -0.7 0.7 -1.7 1.2 -2.8 1.2 c -1.1 0 -2.1 -0.4 -2.8 -1.2 c -0.7 -0.7 -1.2 -1.7 -1.2 -2.8 C 50.9 51.8 51.3 50.8 52 50.1 z" stroke-linecap="round" />
</g>
</g>
</g>
</svg>