<?xml version="1.0" encoding="UTF-8" standalone="no" ?>
<!DOCTYPE svg PUBLIC "-//W3C//DTD SVG 1.1//EN" "http://www.w3.org/Graphics/SVG/1.1/DTD/svg11.dtd">
<svg xmlns="http://www.w3.org/2000/svg" xmlns:xlink="http://www.w3.org/1999/xlink" version="1.1" width="90" height="89" viewBox="0 0 90 89" xml:space="preserve">
<desc>Created with Fabric.js 3.6.6</desc>
<defs>
</defs>
<g transform="matrix(1 0 0 1 45.44 44.88)"  >
<g style=""   >
		<g transform="matrix(1 0 0 1 14.81 -25.45)"  >
<path style="stroke: none; stroke-width: 1; stroke-dasharray: none; stroke-linecap: butt; stroke-dashoffset: 0; stroke-linejoin: miter; stroke-miterlimit: 4; fill: rgb(0,0,0); fill-rule: nonzero; opacity: 1;"  transform=" translate(-64.74, -24.56)" d="M 55.4 43.5 c -0.6 0 -1.3 -0.2 -1.7 -0.7 c -5.9 -6.1 -2.3 -12.9 0.4 -15.7 L 74.9 6.3 c 0.9 -0.9 2.5 -0.9 3.4 0 c 0.9 0.9 0.9 2.5 0 3.4 L 57.5 30.6 c -0.7 0.8 -4.3 4.8 -0.4 8.9 c 0.9 1 0.9 2.5 0 3.4 C 56.6 43.3 56 43.5 55.4 43.5 z" stroke-linecap="round" />
</g>
		<g transform="matrix(1 0 0 1 0 -0.15)"  >
<path style="stroke: none; stroke-width: 1; stroke-dasharray: none; stroke-linecap: butt; stroke-dashoffset: 0; stroke-linejoin: miter; stroke-miterlimit: 4; fill: rgb(0,0,0); fill-rule: nonzero; opacity: 1;"  transform=" translate(-49.93, -49.86)" d="M 17.6 92.5 c -1.9 0 -3.8 -0.7 -5.3 -2.6 c -3.1 -3.9 -1.4 -8.1 0.6 -9.9 l 32.9 -34.6 L 39.2 39 c -0.7 -0.6 -0.9 -1.6 -0.6 -2.5 c 0.1 -0.3 2.4 -8 -5.8 -16.7 c -4.4 -4.7 -12.9 -11.7 -20.2 -5.1 c -1.7 1.5 -2.7 4 -2.8 6.8 c -0.1 3.2 1 8.3 6.9 14.2 c 8.9 8.9 15.4 5.6 15.7 5.4 c 0.9 -0.5 2.1 -0.4 2.9 0.4 l 5.1 4.9 c 1 0.9 1 2.5 0.1 3.4 c -0.9 1 -2.5 1 -3.4 0.1 L 33 46 c -3.3 1 -10.9 1.9 -19.7 -7 C 6.2 31.9 4.9 25.5 5 21.3 c 0.1 -4.1 1.7 -7.8 4.4 -10.2 c 7.4 -6.7 17.5 -4.6 26.9 5.4 c 8 8.5 7.8 16.7 7.2 20 l 7.3 7.1 c 0.9 0.9 1 2.4 0.1 3.4 L 16.2 83.4 c -0.6 0.6 -1.4 1.9 -0.2 3.5 c 1.2 1.6 3.5 0.3 4.1 -0.1 l 39.3 -41.1 c 0.8 -0.9 2.1 -1 3.1 -0.3 c 2.1 1.4 6.1 -0.9 7.5 -1.9 l 20.8 -20.8 c 0.9 -0.9 2.5 -0.9 3.4 0 c 0.9 0.9 0.9 2.5 0 3.4 L 73.4 47.1 c -0.1 0.1 -0.1 0.1 -0.2 0.2 c -0.7 0.5 -6.3 4.7 -11.4 3.1 l -38.3 40 c -0.1 0.1 -0.2 0.2 -0.4 0.3 C 21.9 91.5 19.8 92.5 17.6 92.5 z" stroke-linecap="round" />
</g>
		<g transform="matrix(1 0 0 1 20.73 23.96)"  >
<path style="stroke: none; stroke-width: 1; stroke-dasharray: none; stroke-linecap: butt; stroke-dashoffset: 0; stroke-linejoin: miter; stroke-miterlimit: 4; fill: rgb(0,0,0); fill-rule: nonzero; opacity: 1;"  transform=" translate(-70.66, -73.97)" d="M 83.1 94.4 c -0.1 0 -0.2 0 -0.3 0 c -3.1 -0.1 -5.3 -2.6 -5.8 -3.1 l -25.1 -26 c -0.9 -1 -0.9 -2.5 0.1 -3.4 c 1 -0.9 2.5 -0.9 3.4 0.1 L 80.6 88 c 0 0 0.1 0.1 0.1 0.1 c 0.4 0.4 1.5 1.4 2.4 1.4 c 0.2 0 0.6 0 1.3 -0.7 c 1.7 -1.7 0.7 -3.4 0.2 -4 L 58.7 57.6 c -0.9 -1 -0.9 -2.5 0.1 -3.4 c 1 -0.9 2.5 -0.9 3.4 0.1 l 25.9 27.4 c 2 2.3 3.4 6.9 -0.4 10.7 C 86.1 94 84.4 94.4 83.1 94.4 z" stroke-linecap="round" />
</g>
		<g transform="matrix(1 0 0 1 23.22 -27.54)"  >
<path style="stroke: none; stroke-width: 1; stroke-dasharray: none; stroke-linecap: butt; stroke-dashoffset: 0; stroke-linejoin: miter; stroke-miterlimit: 4; fill: rgb(0,0,0); fill-rule: nonzero; opacity: 1;"  transform=" translate(-73.15, -22.48)" d="M 63.5 33.5 c -0.4 0 -0.8 -0.2 -1.2 -0.5 c -0.6 -0.6 -0.6 -1.7 0 -2.3 l 19.4 -18.8 c 0.6 -0.6 1.7 -0.6 2.3 0 c 0.6 0.6 0.6 1.7 0 2.3 L 64.6 33.1 C 64.3 33.4 63.9 33.5 63.5 33.5 z" stroke-linecap="round" />
</g>
		<g transform="matrix(1 0 0 1 28.32 -22.44)"  >
<path style="stroke: none; stroke-width: 1; stroke-dasharray: none; stroke-linecap: butt; stroke-dashoffset: 0; stroke-linejoin: miter; stroke-miterlimit: 4; fill: rgb(0,0,0); fill-rule: nonzero; opacity: 1;"  transform=" translate(-78.25, -27.57)" d="M 68.5 38.6 c -0.4 0 -0.8 -0.2 -1.2 -0.5 c -0.6 -0.6 -0.6 -1.7 0 -2.3 L 86.9 17 c 0.6 -0.6 1.7 -0.6 2.3 0 c 0.6 0.6 0.6 1.7 0 2.3 L 69.7 38.1 C 69.4 38.5 68.9 38.6 68.5 38.6 z" stroke-linecap="round" />
</g>
		<g transform="matrix(1 0 0 1 -25.3 -14.92)"  >
<path style="stroke: none; stroke-width: 1; stroke-dasharray: none; stroke-linecap: butt; stroke-dashoffset: 0; stroke-linejoin: miter; stroke-miterlimit: 4; fill: rgb(0,0,0); fill-rule: nonzero; opacity: 1;"  transform=" translate(-24.63, -35.09)" d="M 27.6 39.5 c -5.3 0 -9.9 -5.9 -10.2 -6.2 c -0.5 -0.7 -0.4 -1.7 0.3 -2.3 c 0.7 -0.5 1.7 -0.4 2.3 0.3 c 0.1 0.1 5.6 7.1 9.7 4.3 c 0.7 -0.5 1.7 -0.3 2.2 0.4 c 0.5 0.7 0.3 1.7 -0.4 2.2 C 30.2 39.1 28.9 39.5 27.6 39.5 z" stroke-linecap="round" />
</g>
</g>
</g>
</svg>