<?xml version="1.0" encoding="UTF-8" standalone="no" ?>
<!DOCTYPE svg PUBLIC "-//W3C//DTD SVG 1.1//EN" "http://www.w3.org/Graphics/SVG/1.1/DTD/svg11.dtd">
<svg xmlns="http://www.w3.org/2000/svg" xmlns:xlink="http://www.w3.org/1999/xlink" version="1.1" width="22" height="30" viewBox="0 0 22 30" xml:space="preserve">
<desc>Created with Fabric.js 3.6.6</desc>
<defs>
</defs>
<g transform="matrix(0.28 0 0 0.28 11.45 15.3)"  >
<path style="stroke: none; stroke-width: 1; stroke-dasharray: none; stroke-linecap: butt; stroke-dashoffset: 0; stroke-linejoin: miter; stroke-miterlimit: 4; fill: rgb(0,0,0); fill-rule: nonzero; opacity: 1;"  transform=" translate(-952.43, -7609)" d="M 988.839367 7576.87376 C 988.846833 7576.94842 988.850679 7577.02376 988.850679 7577.09955 L 988.850679 7656.73756 C 988.850679 7657.98688 987.837557 7659 986.588235 7659 L 918.262443 7659 C 917.012896 7659 916 7657.98688 916 7656.73756 L 916 7561.26244 C 916 7560.01312 917.012896 7559 918.262443 7559 L 970.751131 7559 C 970.826923 7559 970.902262 7559.00385 970.977376 7559.01109 C 971.032127 7559.01652 971.085747 7559.02602 971.139367 7559.03529 C 971.158371 7559.03869 971.177828 7559.04027 971.196833 7559.04412 C 971.261538 7559.05701 971.324887 7559.07376 971.387557 7559.09208 C 971.395249 7559.09434 971.402941 7559.0957 971.410633 7559.09796 C 971.474208 7559.11742 971.536425 7559.14027 971.597511 7559.16493 C 971.604299 7559.16787 971.611538 7559.16968 971.618552 7559.17262 C 971.676244 7559.19661 971.732127 7559.22376 971.787104 7559.25226 C 971.797511 7559.25769 971.808597 7559.26222 971.819005 7559.26765 C 971.868552 7559.29412 971.915837 7559.32376 971.963122 7559.35385 C 971.978281 7559.36357 971.994344 7559.37217 972.009502 7559.38213 C 972.051584 7559.41041 972.091629 7559.44163 972.131674 7559.47262 C 972.15 7559.48688 972.169457 7559.49977 972.187557 7559.51448 C 972.228959 7559.54864 972.267647 7559.58552 972.306561 7559.6224 C 972.321041 7559.63597 972.336652 7559.64819 972.350905 7559.66244 L 988.188009 7575.49955 C 988.202036 7575.5138 988.214253 7575.52941 988.228054 7575.54389 C 988.264932 7575.58281 988.30181 7575.62149 988.335973 7575.6629 C 988.350905 7575.681 988.363575 7575.70045 988.377828 7575.719 C 988.408824 7575.75905 988.440045 7575.79887 988.468326 7575.84118 C 988.478507 7575.85633 988.486878 7575.8724 988.496606 7575.88778 C 988.526697 7575.93507 988.556335 7575.98235 988.582805 7576.0319 C 988.588462 7576.04231 988.59276 7576.05339 988.59819 7576.0638 C 988.626697 7576.119 988.653846 7576.17466 988.677828 7576.23235 C 988.680769 7576.23914 988.682805 7576.24638 988.68552 7576.25339 C 988.710181 7576.31448 988.733032 7576.3767 988.752489 7576.44027 C 988.754751 7576.44796 988.756109 7576.45566 988.758371 7576.46335 C 988.776697 7576.52602 988.793439 7576.58937 988.806335 7576.65407 C 988.810181 7576.67308 988.811765 7576.69253 988.815158 7576.71154 C 988.824434 7576.76538 988.833937 7576.81878 988.839367 7576.87376 Z M 973.013575 7566.72466 L 973.013575 7574.8371 L 981.126018 7574.8371 L 973.013575 7566.72466 Z M 920.524887 7654.47511 L 984.325792 7654.47511 L 984.325792 7579.36199 L 970.751131 7579.36199 C 969.50181 7579.36199 968.488688 7578.34887 968.488688 7577.09955 L 968.488688 7563.52489 L 920.524887 7563.52489 L 920.524887 7654.47511 Z M 933.299658 7636 C 931.871087 7636 930.850679 7634.97959 930.850679 7633.55102 C 930.850679 7632.12245 931.871087 7631 933.299658 7631 L 948.197618 7631 C 949.626189 7631 950.646597 7632.12245 950.646597 7633.55102 C 950.646597 7634.97959 949.626189 7636 948.197618 7636 L 933.299658 7636 Z M 933.299658 7646 C 931.871087 7646 930.850679 7644.97959 930.850679 7643.55102 C 930.850679 7642.12245 931.871087 7641 933.299658 7641 L 948.197618 7641 C 949.626189 7641 950.646597 7642.12245 950.646597 7643.55102 C 950.646597 7644.97959 949.626189 7646 948.197618 7646 L 933.299658 7646 Z M 933.299658 7616 C 931.871087 7616 930.850679 7614.97959 930.850679 7613.55102 C 930.850679 7612.12245 931.871087 7611 933.299658 7611 L 971.197618 7611 C 972.626189 7611 973.646597 7612.12245 973.646597 7613.55102 C 973.646597 7614.97959 972.626189 7616 971.197618 7616 L 933.299658 7616 Z M 933.299658 7626 C 931.871087 7626 930.850679 7624.97959 930.850679 7623.55102 C 930.850679 7622.12245 931.871087 7621 933.299658 7621 L 971.197618 7621 C 972.626189 7621 973.646597 7622.12245 973.646597 7623.55102 C 973.646597 7624.97959 972.626189 7626 971.197618 7626 L 933.299658 7626 Z M 956.299658 7636 C 954.871087 7636 953.850679 7634.97959 953.850679 7633.55102 C 953.850679 7632.12245 954.871087 7631 956.299658 7631 L 971.197618 7631 C 972.626189 7631 973.646597 7632.12245 973.646597 7633.55102 C 973.646597 7634.97959 972.626189 7636 971.197618 7636 L 956.299658 7636 Z M 956.299658 7646 C 954.871087 7646 953.850679 7644.97959 953.850679 7643.55102 C 953.850679 7642.12245 954.871087 7641 956.299658 7641 L 971.197618 7641 C 972.626189 7641 973.646597 7642.12245 973.646597 7643.55102 C 973.646597 7644.97959 972.626189 7646 971.197618 7646 L 956.299658 7646 Z M 955.791867 7585.04971 C 955.878946 7585.04971 955.949626 7585.12096 955.949626 7585.20804 L 955.949626 7592.79177 C 955.949626 7592.87829 955.878946 7592.94897 955.791867 7592.94897 L 948.208698 7592.94897 C 948.121054 7592.94897 948.050374 7592.87829 948.050374 7592.79177 L 948.050374 7585.20804 C 948.050374 7585.12096 948.121054 7585.04971 948.208698 7585.04971 L 955.791867 7585.04971 Z M 965.295425 7590.70062 L 962.624725 7590.70062 L 962.624725 7592.08249 L 965.294765 7592.08249 C 966.237132 7592.08249 966.99934 7592.84074 966.99934 7593.78245 C 966.99934 7594.72481 966.237132 7595.48372 965.294765 7595.48372 L 962.624725 7595.48372 C 962.461725 7597.69512 960.696436 7599.46172 958.483062 7599.62473 L 958.483062 7602.29476 C 958.483062 7603.23581 957.724153 7603.99868 956.781786 7603.99868 C 955.840079 7603.99868 955.08183 7603.23581 955.08183 7602.29476 L 955.08183 7599.62341 L 953.701936 7599.62341 L 953.701936 7602.29476 C 953.701936 7603.23581 952.941047 7603.99868 952 7603.99868 C 951.058293 7603.99868 950.298724 7603.23581 950.298724 7602.29476 L 950.298724 7599.62341 L 948.91817 7599.62341 L 948.91817 7602.29476 C 948.91817 7603.23581 948.159261 7603.99868 947.217554 7603.99868 C 946.275847 7603.99868 945.516278 7603.23581 945.516278 7602.29476 L 945.516278 7599.62407 C 943.304223 7599.46106 941.537615 7597.69578 941.374615 7595.4824 L 938.704575 7595.4824 C 937.762868 7595.4824 937 7594.72349 937 7593.78245 C 937 7592.84008 937.762868 7592.08051 938.704575 7592.08117 L 941.375275 7592.08117 L 941.375275 7590.70062 L 938.704575 7590.70062 C 937.762868 7590.70062 937 7589.94105 937 7588.99934 C 937 7588.05763 937.762868 7587.29872 938.704575 7587.29872 L 941.375275 7587.29872 L 941.375275 7585.91817 L 938.704575 7585.91817 C 937.762868 7585.91817 937 7585.15926 937 7584.21755 C 937 7583.27585 937.762868 7582.51628 938.704575 7582.51628 L 941.374615 7582.51628 C 941.537615 7580.30422 943.303564 7578.53762 945.516278 7578.37462 L 945.516278 7575.70458 C 945.516278 7574.76287 946.275847 7574 947.217554 7574 C 948.159261 7574 948.91883 7574.76287 948.91817 7575.70458 L 948.91817 7578.37527 L 950.298064 7578.37527 L 950.298064 7575.70458 C 950.298064 7574.76287 951.057633 7574 951.99934 7574 C 952.941047 7574 953.701276 7574.76287 953.701276 7575.70458 L 953.701276 7578.37527 L 955.08183 7578.37527 L 955.08183 7575.70458 C 955.08183 7574.76287 955.841399 7574 956.782446 7574 C 957.723493 7574 958.483722 7574.76287 958.483722 7575.70458 L 958.483722 7578.37527 C 960.695117 7578.53828 962.462385 7580.30356 962.625385 7582.51694 L 965.295425 7582.51694 C 966.237791 7582.51694 967 7583.27651 967 7584.21821 C 967 7585.15992 966.237791 7585.91883 965.295425 7585.91883 L 962.624725 7585.91883 L 962.624725 7587.29938 L 965.295425 7587.29938 C 966.237791 7587.29938 967 7588.05763 967 7589 C 967 7589.94237 966.237791 7590.70062 965.295425 7590.70062 Z M 959.321161 7593.42543 L 959.321821 7593.42543 L 959.321821 7584.57457 C 959.321821 7582.96898 958.031676 7581.67818 956.425429 7581.67818 L 947.575231 7581.67818 C 945.969644 7581.67818 944.678839 7582.96898 944.678839 7584.57457 L 944.678839 7593.42543 C 944.678839 7595.03168 945.968984 7596.32248 947.575231 7596.32248 L 956.424769 7596.32248 C 958.030356 7596.32248 959.321161 7595.03168 959.321161 7593.42543 Z" stroke-linecap="round" />
</g>
</svg>