<svg xmlns="http://www.w3.org/2000/svg" viewBox="0 0 2884.14 2898"><defs><style>.cls-1{fill-rule:evenodd;}</style></defs><g id="Layer_2" data-name="Layer 2"><g id="Layer_1-2" data-name="Layer 1"><path class="cls-1" d="M2463.93,421.15C2192.8,149.71,1832.24.16,1448.09,0,656.56,0,12.35,644.16,12,1435.93c-.11,253.11,66,500.15,191.69,717.93L0,2898l761.27-199.69a1434.88,1434.88,0,0,0,686.24,174.79h.6c791.44,0,1435.71-644.23,1436-1436C2884.29,1053.37,2735.05,692.58,2463.93,421.15ZM1448.1,2630.57h-.48a1191.72,1191.72,0,0,1-607.5-166.37l-43.58-25.87L344.79,2556.84l120.58-440.45L437,2071.23c-119.48-190-182.58-409.67-182.49-635.21.26-658.08,535.7-1193.48,1194.08-1193.48,318.8.11,618.48,124.43,843.84,350S2641.8,1118.07,2641.67,1437C2641.41,2095.12,2106,2630.57,1448.1,2630.57Zm654.7-893.93c-35.88-18-212.29-104.75-245.18-116.74s-56.81-18-80.73,18-92.68,116.75-113.62,140.7-41.86,26.94-77.73,9S1434,1731.69,1297,1609.44c-106.67-95.15-178.68-212.64-199.61-248.57s-2.23-55.33,15.73-73.23c16.15-16.08,35.89-41.91,53.83-62.86s23.92-35.93,35.88-59.86,6-44.9-3-62.86-80.73-194.58-110.63-266.43c-29.13-70-58.71-60.48-80.74-61.6-20.9-1-44.85-1.26-68.77-1.26s-62.79,9-95.68,44.9S718.42,940.41,718.42,1117,847,1464.25,864.93,1488.2s253,386.37,613,541.8c85.61,37,152.45,59.05,204.56,75.58,86,27.32,164.18,23.46,226,14.22,68.94-10.3,212.29-86.8,242.2-170.61s29.89-155.67,20.92-170.63S2138.68,1754.61,2102.8,1736.64Z"/></g></g></svg>